# xmcd CD database file generated by OrangeCD 5.1
#
# Track frame offsets:
#	150
#	9831
#	22192
#	34847
#	48329
#	59275
#	71438
#	83043
#	95435
#	110027
#	123755
#	136002
#	149213
#	162887
#	174774
#	186678
#	199987
#	215214
#	228388
#	240765
#	254258
#	266409
#	279920
#	293727
#	308182
#
# Disc length: 4289 seconds
#
# Revision: 2
# Processed by: cddbd v1.4PL0 Copyright (c) Steve Scherf et al.
# Submitted via: OrangeCD 5.1
#
DISCID=6610bf19
DTITLE=Hopkins, Lightnin' - All The Classics 1946 - 1951 [CDD)
DYEAR=2003
DGENRE=Blues
TTITLE0=Henny Penny Blues
TTITLE1=Loretta Blues
TTITLE2=Jackstropper Blues
TTITLE3=Grievance Blues
TTITLE4=Grosebeck Blues - (take 2)
TTITLE5=Whiskey Blues
TTITLE6=Racetrack Blues
TTITLE7=Good-Bye Blues
TTITLE8=Bluebird Blues
TTITLE9=Seems Funny Baby
TTITLE10=Coolin' Board Blues
TTITLE11=Goin' Back And Talk To Mama
TTITLE12=All I Got Is Gone
TTITLE13=Beggin' You To Stay
TTITLE14=Bad Luck And Trouble
TTITLE15=Black Cat Bone
TTITLE16=Disagreeable
TTITLE17=Dark And Cloudy
TTITLE18=Coffee Blues
TTITLE19=Praying Ground Blues
TTITLE20=Gotta Move
TTITLE21=Give Me Central 209
TTITLE22=Long Way From Texas
TTITLE23=Tell Me Boogie
TTITLE24=New Short Haired Woman
EXTD=
EXTT0=
EXTT1=
EXTT2=
EXTT3=
EXTT4=
EXTT5=
EXTT6=
EXTT7=
EXTT8=
EXTT9=
EXTT10=
EXTT11=
EXTT12=
EXTT13=
EXTT14=
EXTT15=
EXTT16=
EXTT17=
EXTT18=
EXTT19=
EXTT20=
EXTT21=
EXTT22=
EXTT23=
EXTT24=
PLAYORDER=
